<?xml version="1.0" encoding="utf-8"?>
<!-- Generator: Adobe Illustrator 22.0.0, SVG Export Plug-In . SVG Version: 6.00 Build 0)  -->
<svg version="1.1" id="Capa_1" xmlns="http://www.w3.org/2000/svg" xmlns:xlink="http://www.w3.org/1999/xlink" x="0px" y="0px"
	 viewBox="0 0 287.4 241.8" style="enable-background:new 0 0 287.4 241.8;" xml:space="preserve">
<g>
	<g>
		<path d="M62.7,132.6v98.4c0,5.9,4.7,10.6,10.6,10.6c5.9,0,10.6-4.7,10.6-10.6v-98.4c0-5.9-4.8-10.6-10.6-10.6
			C67.5,122,62.7,126.8,62.7,132.6z"/>
		<path d="M29.5,241.8h23.4V124.9c0.1-0.6,0.2-1.1,0.2-1.7c0-50.4,40.7-91.4,90.7-91.4c50,0,90.7,41,90.7,91.4
			c0,0.8,0.1,1.5,0.2,2.3v116.3h23.4c16.3,0,29.4-13.6,29.4-30.5v-60.9c0-13.9-9-25.6-21.3-29.2C265,54.2,210.5,0,143.7,0
			C76.8,0,22.3,54.2,21.2,121.2C9,124.8,0,136.5,0,150.4v60.9C0,228.1,13.2,241.8,29.5,241.8z"/>
		<path d="M203.5,132.6v98.4c0,5.9,4.7,10.6,10.6,10.6s10.6-4.7,10.6-10.6v-98.4c0-5.9-4.7-10.6-10.6-10.6
			C208.2,122,203.5,126.8,203.5,132.6z"/>
	</g>
</g>
</svg>
