<?xml version="1.0" encoding="utf-8"?>
<!-- Generator: Adobe Illustrator 22.0.0, SVG Export Plug-In . SVG Version: 6.00 Build 0)  -->
<svg version="1.1" id="Calque_1" xmlns="http://www.w3.org/2000/svg" xmlns:xlink="http://www.w3.org/1999/xlink" x="0px" y="0px"
	 viewBox="0 0 400 272.3" style="enable-background:new 0 0 400 272.3;" xml:space="preserve">
<g>
	<g>
		<path d="M200,229c39.8,0,78-4.9,111.1-14.2c-24.7,34.8-65.2,57.5-111.1,57.5s-86.5-22.7-111.1-57.5C122,224.1,160.2,229,200,229z"
			/>
	</g>
	<path d="M400,135.6c0,28.7-32.6,54-82.7,69.7c-32.9,10.3-73.5,16.3-117.3,16.3s-84.4-6.1-117.3-16.3C32.6,189.7,0,164.3,0,135.6
		c0-28.8,32.9-54.3,83.5-69.9c-2,3.4-3.9,6.8-5.7,10.3c-18.9,10.9-30,24.4-30,39c0,10.6,5.9,20.6,16.3,29.5
		c25.1,21.3,76.5,36,135.9,36s110.8-14.6,135.9-36c10.4-8.9,16.3-18.9,16.3-29.5c0-14.6-11.2-28.1-30-39c-1.7-3.5-3.6-7-5.7-10.3
		C367.1,81.3,400,106.8,400,135.6z"/>
	<path d="M336.1,134.1L336.1,134.1c-1.5,1.6-3.2,3.2-5,4.8c-11.7,9.9-29.8,18.4-52.2,24.5c-23.6,6.4-50.8,9.7-78.9,9.7
		s-55.3-3.4-78.9-9.7c-22.5-6.1-40.5-14.5-52.2-24.5c-1.9-1.6-3.5-3.2-5-4.8v0c0.2-16.1,3.3-31.5,8.6-45.8c1.6-4.2,3.4-8.3,5.3-12.3
		c1.7-3.5,3.6-7,5.7-10.3c2-3.3,4.2-6.6,6.5-9.7C114.7,22,154.8,0,200,0c45.2,0,85.3,22,110,56c2.3,3.1,4.5,6.4,6.5,9.7
		c2,3.4,3.9,6.8,5.7,10.3c2,4,3.8,8.1,5.3,12.3C332.9,102.6,335.9,118,336.1,134.1z"/>
</g>
</svg>
